<?xml version="1.0" encoding="UTF-8"?>
<svg xmlns="http://www.w3.org/2000/svg"
  viewBox="21 39 125 125"
  width="512" height="512">
  <g transform="translate(-38.925926,240.049413) scale(0.100000,-0.100000)"
     fill="#1f4d7e" stroke="none">
    <path d="M1240 1887 c-48 -32 -119 -127 -120 -159 -1 -62 52 -47 109 31 49 68
71 80 106 57 48 -31 212 -287 286 -444 67 -142 63 -263 -11 -376 -108 -165
-334 -212 -497 -105 -69 45 -124 114 -147 185 -20 61 -46 89 -75 79 -28 -9
-27 -44 5 -126 36 -95 118 -183 218 -234 69 -35 84 -38 176 -43 87 -4 108 -2
163 18 141 51 245 160 288 303 24 79 24 130 0 216 -45 162 -280 550 -364 602
-43 25 -96 24 -137 -4z"/>
    <path d="M994 1593 c-27 -26 -68 -70 -90 -97 l-40 -50 -53 42 c-58 46 -72 50
-95 26 -19 -18 -20 -63 -5 -133 8 -40 21 -61 60 -99 28 -27 68 -55 90 -62 36
-12 44 -11 83 7 48 24 128 111 151 166 24 59 29 166 8 207 -26 51 -51 50 -109
-7z m61 -53 c11 -19 -17 -135 -43 -173 -25 -37 -58 -67 -74 -67 -5 0 -8 25 -8
55 0 100 93 237 125 185z m-238 -124 c25 -31 58 -105 50 -112 -25 -25 -107 61
-107 113 0 31 33 31 57 -1z"/>
  </g>
</svg>