<?xml version="1.0" standalone="no"?>
<!DOCTYPE svg PUBLIC "-//W3C//DTD SVG 20010904//EN"
 "http://www.w3.org/TR/2001/REC-SVG-20010904/DTD/svg10.dtd">
<svg version="1.0" xmlns="http://www.w3.org/2000/svg"
 width="866.422930pt" height="240.049413pt" viewBox="0 0 866.422930 240.049413"
 preserveAspectRatio="xMidYMid meet">
<metadata>
Created by potrace 1.16, written by Peter Selinger 2001-2019
</metadata>
<g transform="translate(-38.925926,240.049413) scale(0.100000,-0.100000)"
fill="#1f4d7e" stroke="none">
<path d="M2380 2390 c0 -5 -13 -16 -29 -25 -16 -8 -40 -31 -53 -52 l-23 -38 0
-691 0 -690 28 -43 c73 -111 216 -100 277 20 19 37 20 63 20 702 0 366 -3 679
-6 697 -6 30 -41 73 -92 113 -24 18 -122 25 -122 7z"/>
<path d="M4816 2389 c-10 -6 -46 -18 -80 -25 -201 -46 -326 -169 -355 -351
-12 -76 0 -168 32 -233 44 -93 153 -183 277 -229 66 -24 225 -71 243 -71 21 0
150 -41 204 -66 66 -30 90 -50 114 -96 46 -89 7 -192 -96 -252 -85 -50 -254
-60 -345 -19 -67 29 -141 117 -166 195 -12 40 -64 107 -94 123 -59 30 -124 13
-174 -45 -22 -27 -26 -41 -26 -99 0 -58 5 -79 36 -141 22 -42 59 -95 93 -129
54 -56 130 -111 151 -111 6 0 31 -9 56 -21 27 -12 95 -26 166 -35 259 -32 470
26 609 166 92 94 133 196 133 330 0 126 -28 195 -115 283 -94 94 -202 142
-479 211 -142 36 -221 65 -260 98 -67 56 -78 121 -29 187 48 67 118 94 238 94
84 0 103 -3 148 -26 54 -28 80 -56 129 -142 16 -27 46 -67 66 -87 32 -32 45
-38 82 -38 48 0 96 27 130 73 32 44 28 126 -9 201 -55 107 -196 211 -315 231
-25 4 -54 14 -65 21 -24 17 -270 19 -299 3z"/>
<path d="M6360 2371 c-85 -51 -110 -101 -320 -646 -23 -60 -51 -129 -61 -152
-11 -23 -19 -45 -19 -48 0 -4 -6 -21 -14 -38 -8 -18 -35 -86 -61 -152 -25 -66
-55 -140 -65 -165 -88 -209 -96 -269 -45 -333 54 -67 148 -84 208 -37 14 11
39 48 56 82 35 71 91 216 91 235 0 7 9 22 20 33 19 19 33 20 315 20 282 0 296
-1 315 -20 11 -11 20 -24 20 -30 0 -5 19 -58 42 -117 63 -165 105 -217 180
-229 78 -13 178 69 178 147 0 19 -13 73 -29 120 -29 83 -179 459 -246 614 -19
44 -46 112 -61 150 -14 39 -32 84 -40 100 -7 17 -43 104 -78 194 -70 176 -114
243 -173 267 -18 8 -33 19 -33 24 0 6 -29 10 -67 9 -55 0 -76 -6 -113 -28z
m115 -371 c7 -12 72 -190 86 -237 5 -18 16 -45 24 -60 8 -15 15 -32 15 -38 0
-11 32 -95 63 -167 34 -80 37 -79 -200 -76 -236 3 -232 2 -194 81 12 24 21 48
21 55 0 6 6 26 14 44 21 50 112 305 141 396 5 15 21 16 30 2z"/>
<path d="M3086 2359 c-61 -10 -95 -34 -121 -85 -19 -38 -20 -62 -23 -667 -3
-645 1 -718 36 -767 10 -14 40 -36 66 -49 45 -22 52 -23 95 -12 25 7 58 24 73
38 50 48 58 94 58 337 0 122 4 226 8 233 6 9 66 14 207 17 295 6 422 43 531
151 90 89 124 181 124 334 0 156 -37 257 -129 346 -91 89 -158 113 -339 126
-157 10 -520 10 -586 -2z m592 -270 c84 -38 116 -80 128 -167 7 -58 -9 -137
-34 -167 -56 -67 -142 -92 -345 -98 -103 -4 -131 -2 -143 10 -19 20 -21 422
-1 442 9 10 48 12 180 7 141 -5 175 -9 215 -27z"/>
<path d="M7568 2361 c-51 -7 -90 -31 -122 -75 -21 -27 -21 -39 -24 -679 -2
-447 0 -668 8 -703 21 -96 105 -151 193 -125 53 16 84 45 108 99 17 39 19 71
19 301 0 190 3 262 13 274 11 16 22 16 105 8 58 -6 110 -18 138 -31 46 -23
120 -98 161 -165 14 -22 35 -56 48 -75 12 -19 62 -100 110 -180 48 -80 100
-158 114 -174 31 -34 95 -65 133 -66 74 0 158 70 158 132 0 119 -238 490 -366
568 -19 12 -33 27 -31 33 2 7 37 23 78 37 124 42 241 151 270 253 18 61 22
192 9 248 -36 149 -167 278 -318 310 -56 12 -737 21 -804 10z m688 -269 c83
-42 122 -120 109 -216 -6 -43 -14 -58 -51 -93 -24 -23 -60 -47 -81 -54 -22 -7
-127 -14 -252 -16 -172 -4 -215 -2 -222 8 -14 23 -11 373 4 388 9 10 59 12
232 9 199 -4 224 -7 261 -26z"/>
<path d="M1240 1887 c-48 -32 -119 -127 -120 -159 -1 -62 52 -47 109 31 49 68
71 80 106 57 48 -31 212 -287 286 -444 67 -142 63 -263 -11 -376 -108 -165
-334 -212 -497 -105 -69 45 -124 114 -147 185 -20 61 -46 89 -75 79 -28 -9
-27 -44 5 -126 36 -95 118 -183 218 -234 69 -35 84 -38 176 -43 87 -4 108 -2
163 18 141 51 245 160 288 303 24 79 24 130 0 216 -45 162 -280 550 -364 602
-43 25 -96 24 -137 -4z"/>
<path d="M994 1593 c-27 -26 -68 -70 -90 -97 l-40 -50 -53 42 c-58 46 -72 50
-95 26 -19 -18 -20 -63 -5 -133 8 -40 21 -61 60 -99 28 -27 68 -55 90 -62 36
-12 44 -11 83 7 48 24 128 111 151 166 24 59 29 166 8 207 -26 51 -51 50 -109
-7z m61 -53 c11 -19 -17 -135 -43 -173 -25 -37 -58 -67 -74 -67 -5 0 -8 25 -8
55 0 100 93 237 125 185z m-238 -124 c25 -31 58 -105 50 -112 -25 -25 -107 61
-107 113 0 31 33 31 57 -1z"/>
<path d="M402 518 c-17 -17 -17 -429 0 -446 8 -8 48 -12 115 -12 l103 0 38 34
c36 34 37 36 35 100 -3 73 -3 110 0 203 2 58 0 64 -32 97 l-35 36 -106 0 c-69
0 -110 -4 -118 -12z m200 -85 c42 -38 14 -92 -51 -98 -64 -6 -81 7 -81 59 0
23 3 46 7 49 14 14 106 7 125 -10z m1 -200 c22 -20 22 -51 0 -75 -22 -24 -118
-26 -127 -2 -10 27 -7 79 7 93 16 16 95 5 120 -16z"/>
<path d="M831 504 c-42 -35 -47 -65 -41 -237 l5 -149 33 -29 c30 -27 38 -29
113 -29 l81 0 40 40 39 39 -3 161 -3 162 -37 34 c-36 33 -41 34 -117 34 -71 0
-83 -3 -110 -26z m173 -76 c12 -17 16 -49 16 -133 0 -134 -10 -155 -72 -155
-71 0 -78 14 -78 156 0 142 6 154 75 154 34 0 47 -5 59 -22z"/>
<path d="M1283 524 c-18 -8 -30 -54 -53 -204 -12 -74 -30 -151 -40 -171 -20
-40 -23 -55 -21 -111 1 -36 3 -38 35 -38 28 0 37 5 48 28 13 26 17 27 91 30
l78 3 10 -31 c9 -25 16 -30 44 -30 30 0 33 2 38 41 3 23 -1 61 -9 88 -9 31
-14 98 -14 212 0 115 -4 169 -12 177 -12 12 -169 16 -195 6z m125 -209 c4
-175 4 -175 -59 -175 -62 0 -67 10 -50 99 7 36 16 89 21 117 14 89 18 96 53
92 l32 -3 3 -130z"/>
<path d="M1660 460 l-60 -71 0 -159 0 -160 25 -6 c36 -9 55 11 55 60 0 55 13
66 76 66 61 0 71 -10 76 -69 3 -51 26 -73 56 -55 15 10 17 31 20 164 3 170 5
163 -74 249 -38 42 -53 51 -80 51 -29 0 -41 -10 -94 -70z m145 -60 c27 -37 34
-97 13 -118 -16 -16 -110 -16 -126 0 -23 23 -14 81 18 126 36 48 55 47 95 -8z"/>
<path d="M2296 508 c-8 -13 -22 -66 -30 -118 -30 -175 -43 -235 -60 -265 -17
-31 -20 -65 -10 -103 5 -17 14 -22 38 -22 26 0 34 5 43 30 11 29 13 30 81 30
72 0 102 -13 102 -46 0 -9 11 -14 34 -14 l34 0 -5 253 c-3 143 -10 257 -16
265 -6 8 -40 12 -103 12 -86 0 -95 -2 -108 -22z m132 -70 c8 -8 12 -55 12
-144 0 -152 -3 -157 -77 -152 -46 3 -48 4 -47 33 2 59 34 235 46 255 14 22 48
26 66 8z"/>
<path d="M2665 514 c-14 -14 -16 -40 -15 -173 1 -86 -1 -163 -4 -171 -4 -8
-20 -23 -37 -32 -24 -14 -30 -23 -27 -45 3 -24 8 -28 40 -31 31 -3 44 3 75 32
l38 34 1 152 c1 85 6 156 12 162 5 5 22 8 38 6 l29 -3 5 -180 c3 -99 9 -186
13 -192 10 -16 39 -17 55 -1 17 17 17 429 0 446 -8 8 -47 12 -109 12 -77 0
-101 -3 -114 -16z"/>
<path d="M3030 494 c-39 -35 -40 -38 -40 -100 0 -57 3 -67 31 -99 35 -39 35
-44 -1 -141 -27 -72 -22 -94 18 -94 37 0 43 8 77 103 30 83 51 105 85 87 16
-9 20 -23 22 -92 2 -64 7 -83 21 -92 12 -8 22 -8 35 0 15 10 17 34 20 224 2
148 -1 217 -9 226 -8 10 -39 14 -115 14 l-104 0 -40 -36z m178 -56 c7 -7 12
-29 12 -50 0 -32 -4 -40 -26 -48 -84 -32 -161 33 -107 92 19 21 102 25 121 6z"/>
<path d="M3611 516 c-8 -9 -11 -79 -9 -232 l3 -219 23 -3 c48 -7 52 8 52 188
0 93 3 175 6 184 8 21 116 23 133 3 6 -8 12 -80 13 -187 3 -152 5 -174 21
-184 12 -8 22 -8 35 0 15 10 17 34 20 225 2 192 1 215 -15 226 -25 19 -267 18
-282 -1z"/>
<path d="M4012 522 c-9 -7 -12 -60 -10 -233 l3 -224 23 -3 c39 -6 52 15 52 82
0 34 5 67 11 73 7 7 34 9 67 6 106 -8 157 49 150 170 -4 65 -6 71 -41 103
l-37 34 -102 0 c-57 0 -109 -4 -116 -8z m200 -89 c21 -19 24 -81 5 -107 -17
-23 -100 -34 -122 -16 -15 13 -22 120 -8 133 14 14 106 7 125 -10z"/>
<path d="M4432 496 l-37 -34 -3 -139 c-4 -158 5 -200 49 -237 27 -23 39 -26
111 -26 80 0 80 0 120 40 l39 39 -3 161 -3 162 -37 34 c-36 33 -41 34 -118 34
-77 0 -82 -1 -118 -34z m182 -68 c12 -17 16 -49 16 -135 0 -132 -11 -153 -79
-153 -65 0 -71 14 -71 151 0 66 5 129 10 140 16 29 103 27 124 -3z"/>
<path d="M4927 506 c-13 -14 -35 -28 -50 -31 -31 -8 -74 -55 -83 -90 -3 -14
-4 -65 -3 -115 4 -91 4 -92 41 -126 21 -19 47 -34 58 -34 11 0 27 -11 36 -25
9 -15 26 -25 39 -25 13 0 30 10 39 25 10 15 26 25 39 25 13 0 38 15 58 36 33
34 34 37 37 130 3 60 -1 106 -8 125 -15 35 -64 79 -89 79 -10 0 -27 11 -39 25
-27 31 -47 32 -75 1z m-2 -209 c1 -65 -2 -90 -13 -99 -25 -21 -42 17 -42 97 0
72 11 98 39 93 12 -2 15 -22 16 -91z m124 74 c13 -24 8 -158 -7 -173 -6 -6
-18 -8 -26 -5 -13 5 -16 24 -16 95 0 49 3 92 7 95 12 13 32 7 42 -12z"/>
<path d="M5242 518 c-19 -19 -17 -432 2 -447 9 -8 52 -11 126 -9 95 3 115 6
124 20 8 13 8 23 0 35 -9 14 -30 19 -95 23 l-84 5 -3 45 c-4 54 15 73 63 64
23 -4 37 -1 48 11 35 35 14 67 -45 69 -24 1 -48 5 -54 9 -16 10 -24 57 -13 84
8 21 14 23 87 23 47 0 83 5 90 12 17 17 15 55 -4 62 -30 11 -229 7 -242 -6z"/>
<path d="M5629 491 l-39 -39 0 -156 0 -156 36 -40 36 -40 83 0 c81 0 85 1 120
34 30 29 36 41 33 68 -4 47 -42 51 -83 8 -23 -24 -37 -30 -71 -30 -65 0 -74
19 -74 161 0 134 8 149 76 149 32 0 46 -6 69 -30 40 -41 79 -39 83 6 2 25 -5
38 -35 67 -37 36 -39 37 -116 37 -79 0 -80 0 -118 -39z"/>
<path d="M6029 491 l-39 -39 0 -157 0 -157 39 -39 c38 -39 39 -39 118 -39 77
0 79 1 116 36 40 39 47 72 21 98 -18 18 -36 11 -73 -28 -19 -20 -34 -26 -67
-26 -65 0 -74 19 -74 161 0 134 8 149 76 149 32 0 46 -6 69 -30 36 -37 72 -40
81 -6 7 29 -8 60 -45 92 -22 20 -37 23 -105 24 -78 0 -79 0 -117 -39z"/>
<path d="M6402 518 c-9 -9 -12 -72 -12 -223 0 -223 2 -235 47 -235 26 0 49 32
108 151 66 131 69 131 75 -11 4 -103 8 -125 23 -134 12 -8 22 -8 35 0 15 10
17 34 20 224 3 225 0 240 -43 240 -30 0 -40 -13 -104 -143 -31 -62 -60 -110
-66 -107 -6 3 -10 53 -10 118 0 89 -3 115 -15 122 -21 13 -44 12 -58 -2z"/>
<path d="M6827 492 l-37 -38 0 -159 0 -160 35 -37 34 -38 84 0 85 0 36 40 36
40 0 155 0 155 -36 40 -36 40 -82 0 c-82 0 -82 0 -119 -38z m177 -64 c12 -17
16 -49 16 -135 0 -131 -11 -153 -77 -153 -65 0 -73 16 -73 153 0 142 7 157 76
157 33 0 46 -5 58 -22z"/>
<path d="M7203 523 c-10 -3 -13 -57 -13 -218 0 -117 3 -220 6 -229 7 -19 45
-21 62 -4 7 7 12 43 12 89 0 48 4 81 11 85 18 11 102 12 122 2 14 -7 17 -22
17 -83 0 -40 3 -80 6 -89 9 -25 53 -20 63 7 12 31 12 407 0 429 -11 21 -39 24
-57 6 -7 -7 -12 -43 -12 -89 0 -43 -5 -81 -10 -84 -18 -11 -104 -14 -122 -4
-15 8 -18 24 -18 87 0 94 -16 116 -67 95z"/>
<path d="M7662 479 c-78 -84 -80 -90 -78 -252 2 -79 6 -149 10 -155 4 -7 18
-12 32 -12 27 0 49 39 39 71 -3 10 -1 27 5 39 8 16 21 20 60 20 71 0 80 -6 80
-52 0 -48 15 -78 39 -78 36 0 43 25 48 169 5 160 4 161 -74 245 -70 75 -96 76
-161 5z m116 -65 c16 -20 32 -52 36 -72 8 -51 -14 -72 -75 -72 -75 0 -98 38
-63 105 17 33 53 75 65 75 4 0 21 -16 37 -36z"/>
<path d="M8030 515 c-9 -11 -12 -58 -11 -168 1 -84 -1 -160 -4 -170 -4 -9 -22
-26 -41 -38 -23 -14 -34 -28 -34 -44 0 -46 67 -48 117 -2 l36 34 -1 134 c-1
74 1 147 4 162 5 25 9 28 42 25 l37 -3 3 -179 c3 -184 7 -206 43 -206 33 0 39
33 39 235 0 116 -4 204 -10 216 -10 17 -22 19 -109 19 -76 0 -101 -3 -111 -15z"/>
<path d="M8387 492 l-37 -38 0 -160 0 -160 36 -37 c36 -37 37 -37 118 -37 82
0 83 0 119 37 l37 36 0 159 0 158 -36 40 -36 40 -82 0 c-82 0 -82 0 -119 -38z
m175 -59 c15 -14 18 -33 18 -136 0 -142 -7 -157 -76 -157 -65 0 -74 19 -74
159 0 92 3 118 17 133 21 23 89 24 115 1z"/>
<path d="M8762 518 c-9 -9 -12 -72 -12 -223 0 -151 3 -214 12 -223 8 -8 48
-12 115 -12 l103 0 38 34 c36 34 37 36 35 100 -3 73 -3 110 0 203 2 58 0 64
-32 97 l-35 36 -106 0 c-69 0 -110 -4 -118 -12z m200 -85 c42 -38 14 -91 -52
-97 -63 -6 -80 6 -80 58 0 23 3 46 7 49 14 14 106 7 125 -10z m1 -201 c21 -19
22 -41 1 -70 -14 -20 -23 -23 -72 -20 l-57 3 -3 45 c-3 33 1 47 14 57 22 16
92 7 117 -15z"/>
</g>
</svg>
