<svg width="32" height="32" viewBox="0 0 32 32" fill="none" xmlns="http://www.w3.org/2000/svg">
<path d="M15.9459 2C16.7555 2.00003 17.512 2.33229 18.1529 2.74065C18.8111 3.16005 19.4674 3.73655 20.1013 4.39504C21.3715 5.7145 22.6617 7.47896 23.8113 9.31769C24.9643 11.1618 25.9984 13.1168 26.7478 14.8368C27.4758 16.5081 28 18.1003 28 19.1571C28 25.1014 22.654 29.9241 16.034 29.9991H16.027L15.885 30H15.8707L15.7284 29.9991H15.7214C9.97922 29.9341 5.19561 26.2968 4.02803 21.454C3.90511 20.944 4.29441 20.4614 4.86445 20.357C5.50481 20.2398 6.11382 20.6438 6.26592 21.2138C7.29302 25.0631 11.1393 27.9372 15.7497 27.9895L15.8776 27.99L16.0058 27.9895L16.1321 27.9873C21.4744 27.8668 25.7589 23.9568 25.7589 19.1571C25.7589 18.5181 25.39 17.2433 24.6603 15.5682C23.9517 13.9418 22.9632 12.0706 21.8565 10.3007C20.7466 8.52533 19.5401 6.88758 18.405 5.70845C17.8363 5.11771 17.3127 4.67067 16.8549 4.37898C16.3799 4.07634 16.0837 4.00984 15.9459 4.00981C15.8064 4.00984 15.5072 4.0772 15.0275 4.38023C14.5653 4.67217 14.0363 5.11925 13.4613 5.70934C13.1254 6.05395 12.783 6.43773 12.4386 6.85271C12.0849 7.27894 11.4298 7.40835 10.9218 7.13498C10.3676 6.83677 10.2058 6.18016 10.5901 5.71416C10.9837 5.23689 11.3799 4.79077 11.7737 4.38665C12.414 3.72957 13.0757 3.15505 13.737 2.73726C14.3806 2.3307 15.138 2.00002 15.9459 2Z" fill="#1F4D7E"/>
<path fill-rule="evenodd" clip-rule="evenodd" d="M9.5 8.76028C12.0692 14.5023 6.79557 17.974 4.0911 18.9921C-0.237691 17.8901 -0.180653 13.4225 0.117886 11.3564C1.25766 11.5873 2.93359 12.5138 3.87264 14.0853C4.63153 11.7022 6.68659 9.79587 9.5 8.76028ZM1.01917 12.6837C0.995382 13.4939 1.06415 14.4177 1.34268 15.2786C1.67862 16.317 2.29873 17.223 3.42618 17.7707C3.52958 17.3294 3.57057 16.9166 3.56127 16.5317C3.51052 15.616 3.16798 14.7282 2.7151 14.1261C2.2314 13.4832 1.60676 13.0028 1.01917 12.6837ZM8.90491 10.0228C7.29989 10.7985 6.07213 11.9022 5.34155 13.2026C4.81294 14.1436 4.53182 15.2105 4.56939 16.3693C4.57146 16.4092 4.57302 16.4493 4.57417 16.4896C4.59398 16.8764 4.64917 17.2732 4.74249 17.6788C5.82162 17.1217 7.05502 16.2605 7.94414 15.12C8.95851 13.8187 9.54542 12.1384 8.90491 10.0228Z" fill="#1F4D7E"/>
</svg>
