<svg width="1157" height="322" viewBox="0 0 1157 322" fill="none" xmlns="http://www.w3.org/2000/svg">
<path fill-rule="evenodd" clip-rule="evenodd" d="M144.94 301.832H152.023V321.415H144.523V308.499H109.274V321.415H101.774V301.832H106.774L110.357 295.999L113.107 250.167H144.94V301.832ZM117.69 298.082L115.441 301.832H137.44V256.834H120.107L117.69 298.082Z" fill="#1F4D7E"/>
<path fill-rule="evenodd" clip-rule="evenodd" d="M271.17 301.832H278.253V321.415H270.754V308.499H235.505V321.415H228.005V301.832H233.005L236.588 295.999L239.338 250.167H271.17V301.832ZM243.921 298.082L241.671 301.832H263.67V256.834H246.338L243.921 298.082Z" fill="#1F4D7E"/>
<path fill-rule="evenodd" clip-rule="evenodd" d="M611.251 252.667H626L635.333 262V294.999L626 304.332H611.251V310.998H603.751V304.332H589.001L579.668 294.999V262L589.001 252.667H603.751V246H611.251V252.667ZM587.168 264.75V292.249L592.584 297.666H603.751V259.333H592.584L587.168 264.75ZM611.251 297.666H622.417L627.833 292.249V264.75L622.417 259.333H611.251V297.666Z" fill="#1F4D7E"/>
<path d="M327.413 308.499H319.913V256.834H301.997L298.913 302.916L292.58 309.249H283.08V301.749H289.497L291.747 299.499L294.913 250.167H327.413V308.499Z" fill="#1F4D7E"/>
<path d="M1044.77 308.499H1037.27V256.834H1019.35L1016.27 302.916L1009.93 309.249H1000.43V301.749H1006.85L1009.1 299.499L1012.27 250.167H1044.77V308.499Z" fill="#1F4D7E"/>
<path fill-rule="evenodd" clip-rule="evenodd" d="M37.749 258.084V272.583L32.999 277.333L39.832 284.166V299.749L31.082 308.499H0V250.167H29.832L37.749 258.084ZM7.5 301.832H27.499L32.332 296.999V286.416L27.499 281.583H7.5V301.832ZM7.5 274.916H26.083L30.249 270.75V260.834L26.249 256.834H7.5V274.916Z" fill="#1F4D7E"/>
<path fill-rule="evenodd" clip-rule="evenodd" d="M94.4375 259.5V299.166L85.1045 308.499H61.9385L52.6055 299.166V259.5L61.9385 250.167H85.1045L94.4375 259.5ZM60.1055 262.25V296.416L65.5215 301.832H81.5215L86.9375 296.416V262.25L81.5215 256.834H65.5215L60.1055 262.25Z" fill="#1F4D7E"/>
<path fill-rule="evenodd" clip-rule="evenodd" d="M203.516 305.582V308.499H196.433L191.85 292.666H169.767L165.184 308.499H158.268V305.582L174.85 250.167H186.933L203.516 305.582ZM171.767 286H189.933L181.6 257.25H180.1L171.767 286Z" fill="#1F4D7E"/>
<path fill-rule="evenodd" clip-rule="evenodd" d="M380.088 308.499H372.588V287.416H358.005L348.339 308.499H341.422V305.582L350.339 286.25L342.589 278.5V259.084L351.505 250.167H380.088V308.499ZM350.089 261.834V275.75L355.089 280.75H372.588V256.834H355.089L350.089 261.834Z" fill="#1F4D7E"/>
<path d="M459.187 308.499H451.687V256.834H427.938V308.499H420.438V250.167H459.187V308.499Z" fill="#1F4D7E"/>
<path fill-rule="evenodd" clip-rule="evenodd" d="M512.519 259.084V280.833L503.602 289.749H482.52V308.499H475.02V250.167H503.602L512.519 259.084ZM482.52 283.083H500.019L505.019 278.083V261.834L500.019 256.834H482.52V283.083Z" fill="#1F4D7E"/>
<path fill-rule="evenodd" clip-rule="evenodd" d="M566.527 259.5V299.166L557.194 308.499H534.028L524.695 299.166V259.5L534.028 250.167H557.194L566.527 259.5ZM532.194 262.25V296.416L537.611 301.832H553.61L559.027 296.416V262.25L553.61 256.834H537.611L532.194 262.25Z" fill="#1F4D7E"/>
<path d="M684.922 256.834H657.006V275.75H678.256V282.416H657.006V301.832H685.589V308.499H649.507V250.167H684.922V256.834Z" fill="#1F4D7E"/>
<path d="M730.031 256.834H707.948L702.532 262.25V296.416L707.948 301.832H730.031V308.499H704.365L695.032 299.166V259.5L704.365 250.167H730.031V256.834Z" fill="#1F4D7E"/>
<path d="M774.929 256.834H752.846L747.43 262.25V296.416L752.846 301.832H774.929V308.499H749.263L739.93 299.166V259.5L749.263 250.167H774.929V256.834Z" fill="#1F4D7E"/>
<path d="M794.298 300.999H795.465L815.047 250.167H827.797V308.499H820.547V257.667H819.381L799.798 308.499H787.048V250.167H794.298V300.999Z" fill="#1F4D7E"/>
<path fill-rule="evenodd" clip-rule="evenodd" d="M884.497 259.5V299.166L875.164 308.499H851.998L842.664 299.166V259.5L851.998 250.167H875.164L884.497 259.5ZM850.164 262.25V296.416L855.581 301.832H871.58L876.997 296.416V262.25L871.58 256.834H855.581L850.164 262.25Z" fill="#1F4D7E"/>
<path d="M906.804 275.75H931.22V250.167H938.72V308.499H931.22V282.416H906.804V308.499H899.304V250.167H906.804V275.75Z" fill="#1F4D7E"/>
<path fill-rule="evenodd" clip-rule="evenodd" d="M995.202 305.582V308.499H988.119L983.536 292.666H961.453L956.87 308.499H949.954V305.582L966.537 250.167H978.62L995.202 305.582ZM963.453 286H981.62L973.286 257.25H971.786L963.453 286Z" fill="#1F4D7E"/>
<path fill-rule="evenodd" clip-rule="evenodd" d="M1101.44 259.5V299.166L1092.11 308.499H1068.94L1059.61 299.166V259.5L1068.94 250.167H1092.11L1101.44 259.5ZM1067.11 262.25V296.416L1072.52 301.832H1088.52L1093.94 296.416V262.25L1088.52 256.834H1072.52L1067.11 262.25Z" fill="#1F4D7E"/>
<path fill-rule="evenodd" clip-rule="evenodd" d="M1154 258.084V272.583L1149.25 277.333L1156.08 284.166V299.749L1147.33 308.499H1116.25V250.167H1146.08L1154 258.084ZM1123.75 301.832H1143.75L1148.58 296.999V286.416L1143.75 281.583H1123.75V301.832ZM1123.75 274.916H1142.33L1146.5 270.75V260.834L1142.5 256.834H1123.75V274.916Z" fill="#1F4D7E"/>
<path d="M602.488 0C628.868 9.50632e-05 648.703 5.79579 661.988 17.3877C672.771 26.729 679.427 38.5909 681.955 52.9717C683 58.9152 678.205 64.0188 672.177 64.2842L650.347 65.2441C644.796 65.4882 640.109 61.4824 638.245 56.248C636.095 50.2082 632.97 45.5893 628.869 42.3926C622.943 37.6026 614.006 35.2072 602.059 35.207C589.729 35.2071 580.075 37.7461 573.098 42.8232C568.605 46.0805 566.359 50.4406 566.359 55.9014C566.36 60.8828 568.463 65.1459 572.668 68.6904C578.021 73.1928 591.02 77.8879 611.664 82.7734C632.309 87.6592 647.555 92.7369 657.399 98.0059C667.34 103.179 675.083 110.317 680.627 119.418C686.266 128.423 689.086 139.584 689.086 152.9C689.086 164.971 685.74 176.277 679.05 186.814C672.359 197.353 662.895 205.21 650.661 210.384C638.427 215.461 623.18 218 604.925 218C578.354 218 557.948 211.867 543.707 199.604C531.786 189.26 523.883 174.988 519.998 156.789C518.712 150.764 523.223 145.226 529.354 144.628L549.37 142.678C555.077 142.122 560.142 146.086 561.858 151.558C564.672 160.526 568.896 167.441 574.53 172.302C582.177 178.816 592.453 182.073 605.356 182.073C619.024 182.073 629.299 179.198 636.181 173.45C643.158 167.606 646.647 160.804 646.647 153.044C646.647 148.063 645.165 143.847 642.202 140.398C639.335 136.854 634.268 133.789 627.005 131.202C622.035 129.478 610.707 126.412 593.025 122.005C570.278 116.353 554.315 109.408 545.14 101.169C532.236 89.577 525.785 75.4447 525.785 58.7754C525.785 48.0457 528.795 38.0329 534.816 28.7402C540.934 19.3519 549.68 12.214 561.054 7.32812C572.523 2.44237 586.336 4.59421e-05 602.488 0Z" fill="#1F4D7E"/>
<path d="M122.415 64.5C126.389 64.5003 130.102 66.3187 133.248 68.5537C136.479 70.8491 139.7 74.0045 142.812 77.6084C149.046 84.83 155.379 94.4873 161.021 104.551C166.681 114.644 171.757 125.344 175.435 134.758C179.008 143.905 181.581 152.619 181.581 158.403C181.581 190.937 155.341 217.332 122.848 217.743H122.813L122.116 217.748H122.046L121.348 217.743H121.313C93.1286 217.387 69.6489 197.48 63.918 170.975C63.3146 168.183 65.2255 165.542 68.0234 164.971C71.1664 164.33 74.1558 166.54 74.9023 169.66C79.9438 190.728 98.8225 206.458 121.452 206.744L122.08 206.747L122.709 206.744L123.329 206.732C149.551 206.072 170.581 184.673 170.581 158.403C170.581 154.906 168.77 147.929 165.188 138.761C161.711 129.859 156.858 119.618 151.427 109.931C145.979 100.214 140.057 91.2504 134.485 84.7969C131.694 81.5638 129.124 79.117 126.877 77.5205C124.546 75.8645 123.092 75.5003 122.415 75.5C121.73 75.5002 120.262 75.869 117.907 77.5273C115.639 79.1251 113.042 81.5722 110.22 84.8018C108.571 86.6878 106.891 88.7884 105.2 91.0596C103.464 93.3923 100.249 94.1004 97.7549 92.6045C95.0347 90.9723 94.2406 87.3786 96.127 84.8281C98.059 82.2161 100.004 79.7742 101.937 77.5625C105.08 73.9663 108.327 70.8217 111.573 68.5352C114.732 66.3101 118.45 64.5001 122.415 64.5Z" fill="#1F4D7E"/>
<path d="M281.519 3.59277C287.593 3.59303 292.518 8.51795 292.519 14.5928V203.263C292.519 209.338 287.593 214.262 281.519 214.263H261.08C255.005 214.262 250.081 209.338 250.081 203.263V14.5928C250.081 8.51795 255.005 3.59304 261.08 3.59277H281.519Z" fill="#1F4D7E"/>
<path fill-rule="evenodd" clip-rule="evenodd" d="M401.194 3.59277C427.001 3.5928 443.824 4.6463 451.662 6.75391C463.705 9.9155 473.789 16.8145 481.913 27.4482C490.037 37.9862 494.098 51.6378 494.099 68.4023C494.099 81.3354 491.758 92.2107 487.075 101.024C482.392 109.838 476.417 116.784 469.153 121.861C461.985 126.843 454.672 130.15 447.217 131.778C437.085 133.79 422.413 134.795 403.202 134.795H375.531V203.263C375.531 209.338 370.606 214.262 364.531 214.263H344.093C338.018 214.262 333.093 209.338 333.093 203.263V14.5928C333.093 8.51794 338.018 3.59302 344.093 3.59277H401.194ZM375.531 99.0117H398.757C415.483 99.0117 426.668 97.9105 432.308 95.707C437.946 93.5035 442.343 90.0532 445.497 85.3594C448.746 80.6655 450.371 75.2049 450.371 68.9785C450.371 61.3146 448.125 54.9904 443.633 50.0088C439.141 45.0274 433.452 41.9134 426.57 40.668C421.504 39.7101 411.324 39.2315 396.032 39.2314H375.531V99.0117Z" fill="#1F4D7E"/>
<path fill-rule="evenodd" clip-rule="evenodd" d="M822.71 3.59277C827.209 3.59297 831.256 6.33423 832.925 10.5127L908.297 199.182C911.183 206.406 905.862 214.262 898.082 214.263H875.719C871.164 214.263 867.08 211.455 865.448 207.202L849.804 166.41H765.789L751.068 207.012C749.491 211.364 745.357 214.262 740.728 214.263H719.499C711.763 214.263 706.443 206.489 709.245 199.278L782.562 10.6084C784.205 6.37927 788.277 3.59277 792.814 3.59277H822.71ZM778.835 130.916H836.183L807.224 52.7402L778.835 130.916Z" fill="#1F4D7E"/>
<path fill-rule="evenodd" clip-rule="evenodd" d="M1026.44 3.59277C1048.9 3.59281 1065.2 5.50897 1075.33 9.34082C1085.55 13.077 1093.73 19.7837 1099.84 29.459C1105.96 39.1348 1109.02 50.2013 1109.02 62.6553C1109.02 78.4623 1104.38 91.5402 1095.11 101.887C1085.84 112.137 1071.98 118.605 1053.54 121.287C1062.71 126.652 1070.26 132.544 1076.19 138.962C1082.21 145.381 1090.29 156.782 1100.42 173.164L1115.57 197.437C1120.15 204.763 1114.88 214.262 1106.24 214.263H1081.2C1077.53 214.263 1074.1 212.431 1072.06 209.381L1044.65 168.421C1033.75 152.039 1026.29 141.741 1022.28 137.525C1018.27 133.214 1014.01 130.292 1009.52 128.759C1005.03 127.13 997.906 126.316 988.158 126.316H979.556V203.263C979.556 209.338 974.631 214.262 968.556 214.263H948.117C942.042 214.263 937.117 209.338 937.117 203.263V14.5928C937.117 8.5179 942.042 3.59295 948.117 3.59277H1026.44ZM979.556 92.6904H1010.96C1031.31 92.6904 1044.02 91.8277 1049.09 90.1035C1054.16 88.379 1058.12 85.4076 1060.99 81.1924C1063.86 76.9772 1065.29 71.7084 1065.29 65.3857C1065.29 58.2965 1063.38 52.5953 1059.56 48.2842C1055.83 43.8778 1050.52 41.0998 1043.64 39.9502C1040.2 39.4712 1029.88 39.2315 1012.67 39.2314H979.556V92.6904Z" fill="#1F4D7E"/>
<path fill-rule="evenodd" clip-rule="evenodd" d="M90.7764 101.5C103.387 132.926 77.5021 151.928 64.2275 157.5C42.9803 151.469 43.2602 127.017 44.7256 115.709C50.32 116.973 58.5462 122.044 63.1553 130.645C66.8802 117.602 76.9672 107.168 90.7764 101.5ZM49.1494 122.974C49.0327 127.408 49.3702 132.464 50.7373 137.176C52.3862 142.859 55.43 147.818 60.9639 150.815C61.4714 148.4 61.6726 146.141 61.627 144.034C61.3778 139.023 59.6965 134.163 57.4736 130.868C55.0996 127.35 52.0334 124.72 49.1494 122.974ZM87.8555 108.41C79.9775 112.655 73.9512 118.696 70.3652 125.813C67.7706 130.964 66.3908 136.803 66.5752 143.146C66.5853 143.364 66.593 143.583 66.5986 143.804C66.6959 145.921 66.9668 148.093 67.4248 150.312C72.7215 147.263 78.7756 142.55 83.1396 136.308C88.1185 129.186 90.9992 119.989 87.8555 108.41Z" fill="#1F4D7E"/>
</svg>
